# xmcd CD database file
#
# Track frame offsets:
#	150
#	20650
#	45908
#
# Disc length: 949 seconds
#
# Revision: 0
# Processed by: cddbd v1.5.1PL2 Copyright (c) Steve Scherf et al.
# Submitted via: CDex 1.51
#
DISCID=1903b303
DTITLE=pomeranian - POMERANIAN 1ST MINIALUBUM
DYEAR=2005
DGENRE=Ska
TTITLE0=光陰矢のごとし
TTITLE1=サンデー
TTITLE2=曇りの月
EXTD=YEAR: 2005
EXTT0=
EXTT1=
EXTT2=
PLAYORDER=
